# xmcd
#
# Track frame offsets: 
#        150
#        15355
#        30325
#        44332
#        56897
#        70247
#        81875
#        98077
#        109397
#        121700
#
# Disc length: 1855 seconds
#
# Revision: 2
# Processed by: cddbd v1.5PL3 Copyright (c) Steve Scherf et al.
# Submitted via: ExactAudioCopy v0.90b4
#
DISCID=78073d0a
DTITLE=John Conlee - Greatest Hits
DYEAR=1900
DGENRE=Country
TTITLE0=Rose Colored Glasses
TTITLE1=Friday Night Blues
TTITLE2=Lady Lay Down
TTITLE3=She Can't Say That Anymore
TTITLE4=Baby, You're Something
TTITLE5=Backside Of Thirty
TTITLE6=Miss Emily's Picture
TTITLE7=Busted
TTITLE8=Common Man
TTITLE9=I Don't Remember Loving You
EXTD=
EXTT0=
EXTT1=
EXTT2=
EXTT3=
EXTT4=
EXTT5=
EXTT6=
EXTT7=
EXTT8=
EXTT9=
PLAYORDER=
